<?xml version='1.0' encoding='iso-8859-1'?>
<svg version="1.1" xmlns="http://www.w3.org/2000/svg" viewBox="0 0 490.057 490.057" xmlns:xlink="http://www.w3.org/1999/xlink" enable-background="new 0 0 490.057 490.057">
  <g>
    <g>
      <path d="m479.432,383.657l-65.3-65.6c-27-21.2-47.7-5.2-55,4.2-23.8,31.3-38.4,39.6-42.5,39.6-65.3,0-188.7-124.1-188.7-189.8 0-4.2 8.3-18.8 39.4-42.8 8.3-6.3 25.9-29.3 4.1-53.2l-65.3-65.7c-22-18.9-46.5-8.3-55,3.1-84,109.6-63.2,255.5 52.9,372.3 66.4,67.8 146.2,104.3 223,104.3 52.9,0 102.7-17.7 149.3-52.1 8.3-6.3 24.5-30.7 3.1-54.3zm-17.6,37.6c-40.4,32.3-86.1,48-134.8,48-71.5,0-145.2-34.4-208.4-98-107.9-109.6-128.6-244.1-50.9-345.2 4-5.6 16.6-8.2 23.8-1l64.3,64.6c9.3,10.6 1,19.8-2.1,22.9-42.5,33.4-47.7,50-47.7,59.4 0,77.2 133.8,210.6 209.5,210.6 10.4,0 27-5.2 59.1-48 5.2-6.3 16.6-7.3 22.8-1l65.3,65.7c8.9,10.1 2.2,19.9-0.9,22z"/>
      <path d="m260.632,134.457c5.2,0 9.3,2.1 12.4,5.2 3.1,3.1 5.2,7.3 5.2,12.5s-1,10.4-5.2,15.6c-3.1,5.2-9.3,12.5-17.6,19.8l-42.5,43.8v24h101.6v-29.2h-57l25.9-27.1c10.4-10.4 16.6-18.8 20.7-26.1 4.1-7.3 6.2-14.6 6.2-21.9 0-13.6-5.2-24-14.5-32.3s-20.7-12.5-33.2-12.5c-12.4,0-22.8,3.1-31.1,8.3-8.3,5.2-15.6,13.6-22.8,24l25.9,15.6c8.4-13.4 16.7-19.7 26-19.7z"/>
      <polygon points="392.332,256.457 423.432,256.457 423.432,222.057 440.032,222.057 440.032,193.957 423.432,193.957     423.432,168.857 392.332,168.857 392.332,193.957 371.632,193.957 420.332,110.557 386.132,110.557 334.232,197.057     334.232,222.057 392.332,222.057   "/>
    </g>
  </g>
</svg>
