<?xml version='1.0' encoding='iso-8859-1'?>
<svg version="1.1" xmlns="http://www.w3.org/2000/svg" viewBox="0 0 489.503 489.503" xmlns:xlink="http://www.w3.org/1999/xlink" enable-background="new 0 0 489.503 489.503">
  <g>
    <g>
      <rect width="206.3" x="94.751" y="178.003" height="20.8"/>
      <path d="m371.851,224.403v-180.7h-83l8-30.2c2-3.6-1.5-13.7-10.4-13.5h-177.1c-9.2,0.5-12,9.8-10.4,13.5l8,30.2h-84.1v445.8h349v-54.7c53.4-5.3 94.8-50.9 94.8-105.7 0-54.8-41.4-99.5-94.8-104.7zm-100-203.7l-17.7,65.6h-114.6l-17.7-65.6h150zm79.2,448h-307.3v-404.2h68.7l9.4,35.4c2.1,4.2 5.2,7.3 10.4,7.3h130.2c4.2,0 8.3-3.1 11.5-7.3l9.4-35.4h67.7v159.9c-35,3.5-64.9,24.3-81.3,53.6h-175v20.8h166.1c-3,9.9-4.6,20.4-4.6,31.3 0,17.3 4.1,33.6 11.4,47.9h-172.9v20.8h186.9c17.1,19.9 41.6,33.3 69.4,36v33.9zm10.4-55.2c-45.8,0-84.4-38.5-84.4-84.4s37.5-84.4 84.4-84.4 84.4,38.5 84.4,84.4-37.6,84.4-84.4,84.4z"/>
      <polygon points="338.551,349.903 320.751,333.203 306.251,347.803 338.551,380.103 416.651,301.003 402.051,286.403   "/>
    </g>
  </g>
</svg>
