<?xml version='1.0' encoding='iso-8859-1'?>
<svg version="1.1" xmlns="http://www.w3.org/2000/svg" viewBox="0 0 489.901 489.901" xmlns:xlink="http://www.w3.org/1999/xlink" enable-background="new 0 0 489.901 489.901">
  <g>
    <g>
      <path d="m431.277,472.3l-37.5-42.3v-287.2h-22.9v-142.8h-252.3v403.9l-59.4,68.3c-7,8.1-1.2,17.7 7.3,17.7h356.5c10.2,0.1 13.8-11.2 8.3-17.6zm-104.2-140.8v-28.1h45.9v119.9h-112.7v-119.9h45.9v28.1h20.9zm45.8-167.8v118.8h-112.6v-118.8h112.6zm-233.5-142.8h210.6v122h-110.5v254.4h-100.1v-376.4zm-50,448.2l44.8-51.1h105.3v26.1h139.1l21.4,25h-310.6z"/>
      <rect width="20.9" x="306.177" y="171" height="38.6"/>
      <rect width="20.9" x="158.177" y="189.7" height="38.6"/>
    </g>
  </g>
</svg>
