<?xml version='1.0' encoding='iso-8859-1'?>
<svg version="1.1" xmlns="http://www.w3.org/2000/svg" viewBox="0 0 489.6 489.6" xmlns:xlink="http://www.w3.org/1999/xlink" enable-background="new 0 0 489.6 489.6">
  <g>
    <g>
      <path d="m408.35,117.7c0-37.5-30.2-67.7-67.7-67.7s-67.7,30.2-67.7,67.7 30.2,67.7 67.7,67.7 67.7-30.2 67.7-67.7zm-114.5-1c0-26 20.8-46.9 46.9-46.9 26,0 46.9,21.9 46.9,46.9 0,26-20.8,46.9-46.9,46.9-26.1-0.1-46.9-20.9-46.9-46.9z"/>
      <path d="m453.15,112.5c0-61.5-50-112.5-112.5-112.5-53.8,0-99.6,38.3-110.2,89.7-107.6,3.2-194,91.5-194,199.9 0,110.4 89.6,200 200,200 109.4,0 199-89.6 200-200 0-28.1-6.3-55.3-17.3-80.8 22.7-44.3 34-75.5 34-96.3zm-282.1,10.3c-8.4,12.7-15.9,26-22.4,39.7h-38.4c17.2-17.1 37.8-30.7 60.8-39.7zm54.9,156.4h-28.9c-4.1-25.6-23.2-46.6-47.8-53.7 3.4-14.3 8-28.4 13.5-42.1h63.2v95.8zm-48.8,10.4c0,25-20.8,45.8-45.8,45.8s-45.8-20.8-45.8-45.8 20.8-45.8 45.8-45.8 45.8,20.8 45.8,45.8zm-84.9-106.3h47.6c-4.9,12.9-8.9,26.2-11.9,39.7-31.4,1.6-57.6,25.6-62.5,56.2h-7.8c2.1-35.8 14.6-68.7 34.6-95.9zm0,212.6v-0.1c-20-27.1-32.5-60.1-34.6-95.8h7.8c5,30.8 31.5,54.9 63.2,56.2 3.1,13.6 7.1,26.8 11.9,39.7l-48.3,0zm18,20.8h39.2c6.5,14 14,27.4 22.6,40.1-23.4-9-44.4-22.8-61.8-40.1zm115.8,51.8c-7-0.4-13.9-1.2-20.6-2.4-12.4-15.2-23.2-31.8-32.3-49.4h52.9l-0,51.8zm0-72.7h-62.6c-5.7-13.7-10.3-27.8-13.7-42.3 24.3-7.2 43.2-28.1 47.3-53.5h29v95.8zm0-233.3h-53.8c8.6-17.2 19-33.7 31.1-49 7.4-1.4 15-2.3 22.7-2.8v51.8zm114.6-141.7c51-1.06581e-14 93.6,41.7 91.7,91.7-1.5,38.5-31.5,92.1-91.7,192.7-31.3-50-91.7-153.1-91.7-192.7 0.1-50 40.7-91.7 91.7-91.7zm-93.8,162.5h0.1 2.4c14.7,32.6 34.5,68 51.1,95.8h-53.6v-95.8zm.1,116.7h66.2c6.1,9.9 11.3,18 14.7,23.3-2.7,25.1-8.8,49.5-18.2,72.6h-62.7v-95.9zm0,168.5v-51.8h53.1c-8.9,17.5-19.8,34.1-32.6,49.4-6.7,1.2-13.5,2-20.5,2.4zm52.9-11.3c8.8-13 16.5-26.5 23.1-40.6h39.9c-17.8,17.7-39.2,31.6-63,40.6zm80.9-61.4h-49.1c7.9-21.1 13.4-43.1 16.4-65.7 0.9-1.1 8.6-12.6 19.5-30.1h47.8c-2,35.8-14.6,68.7-34.6,95.8zm-.5-116.6c8.3-13.9 17.4-29.6 26.1-45.9 5,14.8 8.1,30.1 9,45.9h-35.1z"/>
    </g>
  </g>
</svg>
