<?xml version='1.0' encoding='iso-8859-1'?>
<svg version="1.1" xmlns="http://www.w3.org/2000/svg" viewBox="0 0 484.5 484.5" xmlns:xlink="http://www.w3.org/1999/xlink" enable-background="new 0 0 484.5 484.5">
  <g>
    <g>
      <path d="m484.4,61.95h-282.4v69h-62.9c-24.7,0-45.3,20.6-45.3,45.3v36.1c-52.6,5.2-93.8,50.5-93.8,104.1v58.7h66.8c4.5,26.6 28.1,47.4 55.9,47.4s51.4-20.8 55.9-47.4h64.5c4.5,26.6 28.1,47.4 55.9,47.4 19.1,0 36.2-9.5 46.5-24.2 10.3,14.6 27.3,24.2 46.2,24.2 28.8,0 51.7-20.1 56-47.4h36.8v-313.2h-0.1zm-370,114.3c2.84217e-14-13.4 11.3-24.7 24.7-24.7h7.2v60.8h-31.9v-36.1zm8.3,225.7c-19.6,0-36.1-16.5-36.1-36.1 0-19.6 16.5-36.1 36.1-36.1s36.1,15.5 36.1,36.1c-0.1,19.6-16.6,36.1-36.1,36.1zm79.3-47.4h-23.8c-5.4-25.6-28.5-45.3-55.5-45.3s-50.1,19.7-55.5,45.3h-46.6v-38.1c0-46.4 37.1-83.5 83.5-83.5h62.9v-81.4h35v203zm96.9,47.4c-19.6,0-36.1-16.5-36.1-36.1 0-20.6 15.5-36.1 36.1-36.1 19.6,0 36.1,15.5 36.1,36.1 0,19.6-16.5,36.1-36.1,36.1zm92.7,0c-19.6,0-36.1-16.5-36.1-36.1 0-20.6 16.5-36.1 36.1-36.1 20.6,0 36.1,15.5 36.1,36.1-5.68434e-14,19.6-16.5,36.1-36.1,36.1zm55.6-47.4c-5.3-26.3-28.4-45.3-55.6-45.3-18.9,0-35.9,9.6-46.2,24.2-10.3-14.8-27.4-24.2-46.5-24.2-27,0-50.1,19.7-55.5,45.3h-20.8v-223.6-48.4h241.2v272h-16.6z"/>
      <rect width="20.6" x="266.9" y="129.95" height="132.9"/>
      <rect width="20.6" x="332.9" y="129.95" height="132.9"/>
      <rect width="20.6" x="399.9" y="129.95" height="132.9"/>
    </g>
  </g>
</svg>
