<?xml version="1.0" encoding="iso-8859-1"?>
<!-- Generator: Adobe Illustrator 19.0.0, SVG Export Plug-In . SVG Version: 6.00 Build 0)  -->
<svg version="1.1" id="Layer_1" xmlns="http://www.w3.org/2000/svg" xmlns:xlink="http://www.w3.org/1999/xlink" x="0px" y="0px"
	 viewBox="0 0 490.667 490.667" style="enable-background:new 0 0 490.667 490.667;" xml:space="preserve">
<g>
	<g>
		<g>
			<path d="M330.675,320c-5.888,0-10.667,4.779-10.667,10.667v106.667c0,17.643-14.357,32-32,32H53.341c-17.643,0-32-14.357-32-32
				v-384c0-17.643,14.357-32,32-32h234.667c17.643,0,32,14.357,32,32V160c0,5.888,4.779,10.667,10.667,10.667
				c5.888,0,10.667-4.779,10.667-10.667V53.333C341.341,23.936,317.405,0,288.008,0H53.341C23.944,0,0.008,23.936,0.008,53.333v384
				c0,29.397,23.936,53.333,53.333,53.333h234.667c29.397,0,53.333-23.936,53.333-53.333V330.667
				C341.341,324.779,336.563,320,330.675,320z"/>
			<path d="M489.843,241.259c-0.491-1.173-1.216-2.219-2.091-3.136c-0.085-0.085-0.107-0.213-0.213-0.299l-85.333-85.333
				c-4.16-4.16-10.923-4.16-15.083,0c-4.16,4.16-4.16,10.923,0,15.083l67.115,67.115H202.675c-5.888,0-10.667,4.779-10.667,10.667
				s4.779,10.667,10.667,10.667h251.584l-67.136,67.136c-4.16,4.16-4.16,10.923,0,15.083c2.091,2.048,4.821,3.093,7.552,3.093
				c2.731,0,5.461-1.045,7.552-3.115l85.333-85.333c0.469-0.469,0.683-1.067,1.045-1.579c0.427-0.619,0.939-1.152,1.237-1.856
				C490.931,246.827,490.931,243.883,489.843,241.259z"/>
		</g>
	</g>
</g>
<g>
</g>
<g>
</g>
<g>
</g>
<g>
</g>
<g>
</g>
<g>
</g>
<g>
</g>
<g>
</g>
<g>
</g>
<g>
</g>
<g>
</g>
<g>
</g>
<g>
</g>
<g>
</g>
<g>
</g>
</svg>
